<?xml version="1.0" encoding="UTF-8"?>
<svg version="1.1" viewBox="0 0 89.6 95.5" xmlns="http://www.w3.org/2000/svg" xmlns:cc="http://creativecommons.org/ns#" xmlns:dc="http://purl.org/dc/elements/1.1/" xmlns:rdf="http://www.w3.org/1999/02/22-rdf-syntax-ns#">
<metadata>
<rdf:RDF>
<cc:Work rdf:about="">
<dc:format>image/svg+xml</dc:format>
<dc:type rdf:resource="http://purl.org/dc/dcmitype/StillImage"/>
</cc:Work>
</rdf:RDF>
</metadata>
<path d="M79.565 40.652h-3.58a31.755 31.755 0 0 0-2.382-5.719l2.542-2.54a7.57 7.57 0 0 0 0-10.697l-2.72-2.72a7.574 7.574 0 0 0-10.705 0l-2.542 2.54a32.625 32.625 0 0 0-5.717-2.382v-3.577a7.562 7.562 0 0 0-7.565-7.565h-3.843a7.562 7.562 0 0 0-7.565 7.565v3.577a31.739 31.739 0 0 0-5.717 2.382l-2.537-2.54a7.568 7.568 0 0 0-10.701 0l-2.7 2.717a7.562 7.562 0 0 0 0 10.697l2.538 2.54a32.691 32.691 0 0 0-2.382 5.719h-3.573a7.562 7.562 0 0 0-7.565 7.565v3.843a7.565 7.565 0 0 0 7.565 7.565h3.575a32.109 32.109 0 0 0 2.382 5.717l-2.54 2.542a7.568 7.568 0 0 0-.002 10.697l2.72 2.72a7.582 7.582 0 0 0 5.349 2.211h.002a7.582 7.582 0 0 0 5.349-2.211l2.542-2.542a32.34 32.34 0 0 0 5.715 2.382v3.58a7.565 7.565 0 0 0 7.565 7.565h3.843a7.565 7.565 0 0 0 7.565-7.565v-3.58a31.988 31.988 0 0 0 5.717-2.382l2.544 2.542a7.585 7.585 0 0 0 10.705 0l2.715-2.72a7.568 7.568 0 0 0 0-10.697L73.6 65.344a32.664 32.664 0 0 0 2.382-5.719h3.58a7.565 7.565 0 0 0 7.565-7.565v-3.84a7.577 7.577 0 0 0-7.571-7.567zM44.987 67.428a17.291 17.291 0 1 1 17.291-17.291 17.311 17.311 0 0 1-17.291 17.291z" fill="none" stroke="#f0f0f0" stroke-miterlimit="10" stroke-width="3"/>
</svg>
