<?xml version="1.0" encoding="UTF-8"?><svg width="300px" height="350px" version="1.1" viewBox="0 0 35 18" xmlns="http://www.w3.org/2000/svg" xmlns:cc="http://creativecommons.org/ns#" xmlns:dc="http://purl.org/dc/elements/1.1/" xmlns:rdf="http://www.w3.org/1999/02/22-rdf-syntax-ns#"><g transform="translate(0,-279)"><path d="m0.26458 286.15 10.583-6.6146h19.844v13.229h-19.844z" fill="none" stroke="#f0f0f0" stroke-miterlimit="1" stroke-width=".265"/><path d="m0.26458 286.15v9.2604" fill="none" stroke="#f0f0f0" stroke-width=".065"/><path d="m30.692 292.77v2.6458" fill="none" stroke="#f0f0f0" stroke-width=".065"/><path d="m22.754 286.15v9.2604" fill="none" stroke="#f0f0f0" stroke-width=".065"/><path d="m22.754 286.15h10.583" fill="none" stroke="#f0f0f0" stroke-width=".065"/><path d="m30.692 279.54h2.6458" fill="none" stroke="#f0f0f0" stroke-width=".065"/><path d="m30.692 292.77h2.6458" fill="none" stroke="#f0f0f0" stroke-width=".065"/><circle cx="22.754" cy="286.15" r=".26458" stroke-width=".1" fill="#f0f0f0"/><path d="m0.26458 294.88 0.79375-0.26458v0.52916l-0.79375-0.26458" stroke="#f0f0f0" fill="#f0f0f0" stroke-width=".065" style="paint-order:normal"/><path d="m22.754 294.88-0.79375-0.26458v0.52916l1.5875-0.52916v0.52916l-0.79375-0.26458" stroke="#f0f0f0" fill="#f0f0f0" stroke-width=".065"/><path d="m30.692 294.88-0.79375-0.26458v0.52916l0.79375-0.26458" stroke="#f0f0f0" fill="#f0f0f0" stroke-width=".065"/><path d="m23.548 294.88h6.35" fill="none" stroke="#f0f0f0" stroke-width=".065"/><path d="m1.0583 294.88h20.902" fill="none" stroke="#f0f0f0" stroke-width=".065"/><path d="m32.808 279.54-0.26458 0.79375h0.52917l-0.26458-0.79375" stroke="#f0f0f0" fill="#f0f0f0" stroke-width=".065"/><path d="m32.808 286.15 0.26458-0.79375h-0.52917l0.52917 1.5875h-0.52917l0.26458-0.79375" stroke="#f0f0f0" fill="#f0f0f0" stroke-width=".065"/><path d="m32.808 280.33v5.0271" stroke="#f0f0f0" stroke-width=".065"/><path d="m32.808 286.95v5.0271h0.26458l-0.26458 0.79375-0.26458-0.79375h0.26458" fill="none" stroke-width="0"/><path d="m32.808 292.77 0.26458-0.79375h-0.52917l0.26458 0.79375" stroke="#f0f0f0" fill="#f0f0f0" stroke-width=".065"/><path d="m32.808 291.97v-5.0271" fill="none" stroke="#f0f0f0" stroke-width=".065"/><text x="16.635273" y="284.82947" fill="#f0f0f0" font-family="sans-serif" font-size="10.583px" font-weight="bold" letter-spacing="0px" stroke-width=".26458" word-spacing="0px" style="line-height:1.25" xml:space="preserve"><tspan x="16.635273" y="284.82947" font-family="sans-serif" font-size="1.4111px" font-weight="bold" stroke-width=".26458" style="line-height:1">GNSS Antenna</tspan></text><text x="33.386696" y="283.53238" fill="#f0f0f0" font-family="sans-serif" font-size="2.1167px" letter-spacing="0px" stroke-width=".26458" word-spacing="0px" style="line-height:1.25" xml:space="preserve"><tspan x="33.386696" y="283.53238" stroke-width=".26458">D</tspan></text><text x="33.432659" y="290.09692" fill="#f0f0f0" font-family="sans-serif" font-size="2.1167px" letter-spacing="0px" stroke-width=".26458" word-spacing="0px" style="line-height:1.25" xml:space="preserve"><tspan x="33.432659" y="290.09692" stroke-width=".26458">C</tspan></text><text x="26.055616" y="296.96234" fill="#f0f0f0" font-family="sans-serif" font-size="2.1167px" letter-spacing="0px" stroke-width=".26458" word-spacing="0px" style="line-height:1.25" xml:space="preserve"><tspan x="26.055616" y="296.96234" stroke-width=".26458">B</tspan></text><text x="10.0427" y="296.94815" fill="#f0f0f0" font-family="sans-serif" font-size="2.1167px" letter-spacing="0px" stroke-width=".26458" word-spacing="0px" style="line-height:1.25" xml:space="preserve"><tspan x="10.0427" y="296.94815" stroke-width=".26458">A</tspan></text></g></svg>
