<svg xmlns="http://www.w3.org/2000/svg" width="95" height="89" fill="#f9423a" xmlns:v="http://vecta.io/nano"><path d="M47.5 1.5a43 43 0 1 0 43 43 43.049 43.049 0 0 0-43-43zm0 82.417A39.417 39.417 0 1 1 86.917 44.5 39.461 39.461 0 0 1 47.5 83.917zm17.392-56.81a1.791 1.791 0 0 0-2.534 0L47.5 41.967l-14.858-14.86a1.792 1.792 0 1 0-2.534 2.534L44.967 44.5l-14.86 14.858a1.792 1.792 0 1 0 2.534 2.534L47.5 47.034l14.858 14.858a1.792 1.792 0 0 0 2.534-2.534L50.034 44.5l14.858-14.858a1.791 1.791 0 0 0 0-2.534z"/></svg>