<?xml version="1.0" encoding="UTF-8" standalone="no"?>
<!-- Generator: Adobe Illustrator 25.4.1, SVG Export Plug-In . SVG Version: 6.00 Build 0)  -->

<svg
   version="1.1"
   x="0px"
   y="0px"
   viewBox="0 0 442.30506 89.983998"
   xml:space="preserve"
   id="svg38"
   sodipodi:docname="guardxp3.svg"
   inkscape:version="1.3.1 (91b66b0783, 2023-11-16)"
   width="442.30505"
   height="89.984001"
   xmlns:inkscape="http://www.inkscape.org/namespaces/inkscape"
   xmlns:sodipodi="http://sodipodi.sourceforge.net/DTD/sodipodi-0.dtd"
   xmlns="http://www.w3.org/2000/svg"
   xmlns:svg="http://www.w3.org/2000/svg"
   xmlns:rdf="http://www.w3.org/1999/02/22-rdf-syntax-ns#"
   xmlns:cc="http://creativecommons.org/ns#"
   xmlns:dc="http://purl.org/dc/elements/1.1/"><metadata
   id="metadata44"><rdf:RDF><cc:Work
       rdf:about=""><dc:format>image/svg+xml</dc:format><dc:type
         rdf:resource="http://purl.org/dc/dcmitype/StillImage" /></cc:Work></rdf:RDF></metadata><defs
   id="defs42"><clipPath
     id="clipPath2011"
     clipPathUnits="userSpaceOnUse"><path
       inkscape:connector-curvature="0"
       id="path2009"
       d="M 0,1000 H 1000 V 0 H 0 Z" /></clipPath><clipPath
     id="clipPath2279"
     clipPathUnits="userSpaceOnUse"><path
       inkscape:connector-curvature="0"
       id="path2277"
       d="M 0,1000 H 1000 V 0 H 0 Z" /></clipPath><clipPath
     id="clipPath2303"
     clipPathUnits="userSpaceOnUse"><path
       inkscape:connector-curvature="0"
       id="path2301"
       d="M 0,1000 H 1000 V 0 H 0 Z" /></clipPath><clipPath
     id="clipPath2609"
     clipPathUnits="userSpaceOnUse"><path
       inkscape:connector-curvature="0"
       id="path2607"
       d="M 0,1000 H 1000 V 0 H 0 Z" /></clipPath><clipPath
     id="clipPath2633"
     clipPathUnits="userSpaceOnUse"><path
       inkscape:connector-curvature="0"
       id="path2631"
       d="M 0,1000 H 1000 V 0 H 0 Z" /></clipPath><clipPath
     id="clipPath2609-0"
     clipPathUnits="userSpaceOnUse"><path
       inkscape:connector-curvature="0"
       id="path2607-3"
       d="M 0,1000 H 1000 V 0 H 0 Z" /></clipPath><clipPath
     id="clipPath2011-0"
     clipPathUnits="userSpaceOnUse"><path
       inkscape:connector-curvature="0"
       id="path2009-3"
       d="M 0,1000 H 1000 V 0 H 0 Z" /></clipPath></defs><sodipodi:namedview
   pagecolor="#ffffff"
   bordercolor="#666666"
   borderopacity="1"
   objecttolerance="10"
   gridtolerance="10"
   guidetolerance="10"
   inkscape:pageopacity="0"
   inkscape:pageshadow="2"
   inkscape:window-width="958"
   inkscape:window-height="1000"
   id="namedview40"
   showgrid="false"
   inkscape:zoom="0.72493955"
   inkscape:cx="373.82427"
   inkscape:cy="-53.797589"
   inkscape:window-x="-7"
   inkscape:window-y="0"
   inkscape:window-maximized="0"
   inkscape:current-layer="svg38"
   inkscape:showpageshadow="2"
   inkscape:pagecheckerboard="0"
   inkscape:deskcolor="#d1d1d1" />
<style
   type="text/css"
   id="style2">
	.st0{fill:none;}
	.st1{font-family:'Rajdhani-Bold';}
	.st2{font-size:72px;}
	.st3{enable-background:new    ;}
	.st4{fill:#F9D203;}
	.st5{font-size:24px;}
	.st6{font-family:'ZurichBT-Black';}
	.st7{font-size:40px;}
</style>









<g
   id="g1186"
   transform="matrix(1.3333333,0,0,-1.3333333,-241.57576,849.06992)">
<path
   d="m 207.19782,-569.31445 h -10.176 q -7.584,0 -11.712,-4.032 -4.128,-4.032 -4.128,-11.616 v -30.432 q 0,-7.584 4.128,-11.616 4.128,-4.032 11.712,-4.032 h 10.176 q 7.488,0 11.616,4.128 4.128,4.032 4.128,11.52 v 2.88 q 0,2.112 -2.016,2.112 h -8.16 q -2.016,0 -2.016,-2.112 v -2.304 q 0,-3.072 -1.248,-4.32 -1.248,-1.344 -4.32,-1.344 h -6.24 q -2.976,0 -4.32,1.344 -1.248,1.248 -1.248,4.32 v 29.28 q 0,3.072 1.248,4.416 1.344,1.248 4.32,1.248 h 6.24 q 3.072,0 4.32,-1.248 1.248,-1.344 1.248,-4.416 v -6.048 q 0,-1.056 -1.056,-1.056 h -5.76 q -2.016,0 -2.016,-2.016 v -6.528 q 0,-2.016 2.016,-2.016 h 16.8 q 2.208,0 2.208,2.208 v 16.032 q 0,7.488 -4.128,11.616 -4.128,4.032 -11.616,4.032 z m 43.96801,0 h -3.168 q -7.392,0 -11.232,-4.032 -3.744,-4.032 -3.744,-11.616 v -31.296 q 0,-2.016 2.016,-2.016 h 8.16 q 2.016,0 2.016,2.016 v 30.72 q 0,3.072 1.248,4.416 1.344,1.248 4.32,1.248 h 3.552 q 6.624,0 6.624,-7.296 v -29.088 q 0,-2.016 2.016,-2.016 h 8.064 q 2.112,0 2.112,2.016 v 44.928 q 0,2.016 -2.112,2.016 h -8.064 q -2.016,0 -2.016,-2.016 v -3.168 h -0.384 q -1.056,2.592 -3.744,3.936 -2.688,1.248 -5.664,1.248 z m 49.72807,0 h -2.304 q -7.584,0 -11.712,-4.032 -4.128,-4.032 -4.128,-11.616 v -17.664 q 0,-7.584 4.128,-11.616 4.128,-4.032 11.712,-4.032 h 22.176 q 2.112,0 2.112,2.016 v 44.928 q 0,2.016 -2.112,2.016 h -8.064 q -2.016,0 -2.016,-2.016 v -3.168 h -0.384 q -1.056,2.592 -3.744,3.936 -2.688,1.248 -5.664,1.248 z m 9.792,-17.856 v -19.488 q 0,-1.056 -1.152,-1.056 h -9.024 q -3.072,0 -4.32,1.344 -1.248,1.248 -1.248,4.32 v 16.512 q 0,3.072 1.248,4.416 1.248,1.248 4.32,1.248 h 3.552 q 6.624,0 6.624,-7.296 z m 32.92797,17.856 h -8.16 q -2.016,0 -2.016,-2.016 v -44.928 q 0,-2.016 2.016,-2.016 h 8.16 q 2.016,0 2.016,2.016 v 3.264 h 0.384 q 1.056,-2.592 3.744,-3.936 2.688,-1.344 5.664,-1.344 h 3.456 q 1.92,0 1.92,2.016 v 6.624 q 0,1.152 -0.48,1.632 -0.384,0.384 -1.44,0.288 h -6.624 q -6.624,0 -6.624,7.488 v 28.896 q 0,2.016 -2.016,2.016 z m 41.28009,0 h -3.936 q -7.392,0 -11.232,-4.032 -3.744,-4.032 -3.744,-11.616 v -17.664 q 0,-7.584 3.744,-11.616 3.84,-4.032 11.232,-4.032 h 3.936 q 2.976,0 5.664,1.344 2.688,1.248 3.744,3.84 h 0.384 v -21.696 q 0,-2.016 2.016,-2.016 h 8.16 q 2.016,0 2.016,2.016 v 63.456 q 0,2.016 -2.016,2.016 h -8.16 q -2.016,0 -2.016,-2.016 v -3.168 h -0.384 q -1.056,2.592 -3.744,3.936 -2.688,1.248 -5.664,1.248 z m 9.792,-17.856 v -13.248 q 0,-7.296 -6.624,-7.296 h -4.32 q -3.072,0 -4.32,1.344 -1.248,1.248 -1.248,4.32 v 16.512 q 0,3.072 1.248,4.416 1.248,1.248 4.32,1.248 h 4.32 q 6.624,0 6.624,-7.296 z"
   id="text1963"
   style="font-weight:bold;font-size:96px;line-height:1.25;font-family:Rajdhani;-inkscape-font-specification:'Rajdhani, Bold';letter-spacing:0px;word-spacing:0px;fill:#f0f0f0;stroke-width:0.75"
   transform="scale(1,-1)"
   aria-label="Guard" /><path
   d="m 426.89455,-569.31445 h -9.504 q -0.96,0 -1.344,-0.576 -0.384,-0.672 0,-1.536 l 14.88,-29.472 -14.4,-28.032 q -0.384,-0.768 0,-1.44 0.384,-0.672 1.344,-0.672 h 9.216 q 2.4,0 3.168,2.016 l 9.12,20.64 h 0.384 l 9.024,-20.64 q 0.96,-2.016 3.072,-2.016 h 9.408 q 0.96,0 1.344,0.768 0.48,0.672 0.096,1.44 l -14.592,27.936 14.88,29.376 q 0.48,0.96 0.096,1.632 -0.384,0.576 -1.44,0.576 h -9.6 q -2.016,0 -2.784,-1.92 l -9.504,-20.736 h -0.384 l -9.6,20.736 q -0.864,1.92 -2.88,1.92 z m 55.00808,0 h -8.16 q -2.016,0 -2.016,-2.016 v -57.696 q 0,-2.016 2.016,-2.016 h 23.424 q 7.488,0 11.616,4.128 4.128,4.032 4.128,11.52 v 9.216 q 0,7.488 -4.128,11.616 -4.128,4.032 -11.616,4.032 h -12.096 q -1.152,0 -1.152,1.056 v 18.144 q 0,2.016 -2.016,2.016 z m 3.072,-31.872 h 10.176 q 3.072,0 4.32,-1.248 1.248,-1.344 1.248,-4.32 v -8.064 q 0,-3.072 -1.248,-4.32 -1.248,-1.344 -4.32,-1.344 h -10.176 q -1.056,0 -1.056,1.056 v 17.184 q 0,1.056 1.056,1.056 z"
   id="text1164"
   style="font-weight:bold;font-size:96px;line-height:1.25;font-family:Rajdhani;-inkscape-font-specification:'Rajdhani, Bold';letter-spacing:0px;word-spacing:0px;fill:#fbd10a;stroke-width:0.75"
   transform="scale(1,-1)"
   aria-label="XP" /></g></svg>
