<svg xmlns="http://www.w3.org/2000/svg" viewBox="0 0 95.5 89.6"  xmlns:v="http://vecta.io/nano"><path d="M93.261 44.638c0 2.529-2.053 4.582-4.582 4.582H80.14v.57a4.45 4.45 0 0 1-.227 1.345v28.454c0 2.529-2.053 4.582-4.582 4.582H60.286c-2.529 0-4.582-2.053-4.582-4.582V68.673c0-4.211-3.427-4.599-7.636-4.599s-7.638.388-7.638 4.599v10.917c0 2.529-2.053 4.582-4.582 4.582H20.801c-2.529 0-4.582-2.053-4.582-4.582V49.22H7.502a4.58 4.58 0 0 1-4.314-3.029c-.651-1.821-.099-3.853 1.391-5.086L45.145 7.57c1.695-1.4 4.142-1.4 5.837 0L63.53 17.939v-.225c0-2.529 2.053-4.582 4.582-4.582h7.446c2.529 0 4.582 2.053 4.582 4.582v13.954l11.036 9.125a4.59 4.59 0 0 1 2.085 3.844z" fill="#f0f0f0" stroke-width="3"/></svg>