<?xml version="1.0" encoding="utf-8"?><!DOCTYPE svg PUBLIC "-//W3C//DTD SVG 1.1//EN" "http://www.w3.org/Graphics/SVG/1.1/DTD/svg11.dtd"><svg version="1.1" id="Layer_1" xmlns="http://www.w3.org/2000/svg" xmlns:xlink="http://www.w3.org/1999/xlink" x="0px" y="0px" viewBox="0 0 400 120" enable-background="new 0 0 400 120" xml:space="preserve"><path fill-rule="evenodd" clip-rule="evenodd" fill="#fff" d="m 360.867,63.966 v -2.744 c 0,-2.159 -3.203,-7.311 -4.575,-7.311 -0.647,0 -0.817,0.654 -1.145,1.146 1.233,1.68 4.115,3.058 4.115,6.625 v 1.598 c 0,3.127 -1.982,5.582 -3.901,6.865 l 0.704,1.365 c 2.109,-0.49 4.802,-4.775 4.802,-7.544 z" id="path2" /><path fill-rule="evenodd" clip-rule="evenodd" fill="#fff" d="m 366.574,63.507 c 0,3.417 -1.031,5.651 -2.277,7.777 -1.423,2.442 -3.788,3.738 -4.802,5.254 l 1.467,2.221 c 1.824,-0.101 5.179,-4.625 6.166,-6.242 1.555,-2.555 2.649,-5.682 2.649,-9.697 0,-4.384 -1.076,-7.002 -2.662,-9.903 -0.793,-1.435 -4.726,-6.318 -6.248,-6.318 -0.353,0 -1.479,1.976 -1.604,2.511 3.001,1.592 7.312,7.236 7.312,11.659 v 2.738 z" id="path4" /><path fill-rule="evenodd" clip-rule="evenodd" fill="#fff" d="m 376.863,65.111 c 0,0.661 -1.246,5.764 -1.529,6.469 -0.856,2.114 -1.391,3.423 -2.536,5.235 -1.749,2.763 -4.965,6.438 -7.821,7.948 l 2.599,4.059 c 2.359,-0.145 8.249,-7.375 9.521,-9.533 2.222,-3.769 4.568,-8.696 4.568,-14.637 v -4.115 c 0,-5.429 -2.542,-11.048 -4.663,-14.534 -1.177,-1.926 -7.513,-9.461 -9.508,-9.461 -0.321,0 -2.599,3.573 -2.743,4.114 2.271,0.609 6.796,6.001 8.092,8.135 1.473,2.429 4.021,8.344 4.021,11.979 v 4.341 z" id="path6" /><path fill-rule="evenodd" clip-rule="evenodd" fill="#fff" d="m 396.521,66.25 v -7.085 c -0.069,-0.101 -0.938,-5.417 -1.057,-6.027 -0.44,-2.196 -0.906,-3.537 -1.46,-5.399 -0.812,-2.731 -2.989,-7.24 -4.48,-9.462 C 385.547,32.33 381.608,28.143 375.718,24.2 l -4.261,6.072 c 3.499,0.994 10.768,9.771 12.566,13.049 3.033,5.525 5.179,11.503 5.179,19.958 v 0.459 c 0,7.312 -2.806,14.291 -5.486,18.966 -1.529,2.662 -3.373,4.713 -5.312,7.029 -1.447,1.724 -5.808,4.499 -6.569,5.543 l 4.015,6.01 c 5.67,-3.801 10.175,-8.501 13.769,-14.284 1.768,-2.857 3.36,-5.978 4.43,-9.508 0.422,-1.403 1.365,-3.756 1.535,-5.323 0.075,-0.717 0.779,-5.682 0.937,-5.921 z" id="path8" /><path fill="#fff" d="m 13.913,16.91 c 0,-4.356 1.491,-8 4.449,-10.933 2.958,-2.936 6.579,-4.402 10.886,-4.402 4.307,0 7.903,1.466 10.814,4.402 2.91,2.934 4.376,6.577 4.376,10.933 0,4.258 -1.466,7.878 -4.398,10.861 -2.936,2.981 -6.532,4.473 -10.792,4.473 -4.307,0 -7.929,-1.491 -10.886,-4.449 -2.958,-2.96 -4.449,-6.579 -4.449,-10.885 z m 2.417,95.27 V 41.188 h 25.699 v 70.991 H 16.33 Z" id="path10" /><path fill="#fff" d="M 46.311,112.18 68.46,10.945 h 31.828 L 122.416,112.18 H 94.892 L 92.74,97.273 H 76.033 L 73.881,112.18 Z M 78.802,76.822 H 90.04 L 84.34,39.32 Z"
id="path12" /><polygon fill="#fff" points="127.689,20.945 155.943,20.945 155.943,122.18 127.689,122.18 " id="polygon14" transform="translate(0,-10)" /><path fill="#fff" d="m 165.199,78.527 c 4.021,3.196 7.736,5.632 11.119,7.293 3.41,1.674 6.368,2.504 8.923,2.504 2.271,0 4.115,-0.661 5.588,-2.014 1.44,-1.347 2.177,-3.027 2.177,-5.059 0,-2.417 -2.467,-5.915 -7.362,-10.559 l -0.258,-0.283 C 176.91,62.6 171.467,56.567 169.057,52.263 c -2.392,-4.286 -3.6,-8.948 -3.6,-13.915 0,-8.567 2.914,-15.595 8.709,-21.108 5.799,-5.514 13.252,-8.283 22.364,-8.283 3.549,0 7.242,0.497 11.05,1.468 3.832,0.971 7.765,2.413 11.83,4.354 v 26.267 c -3.379,-2.674 -6.551,-4.687 -9.509,-6.058 -2.964,-1.35 -5.656,-2.036 -8.117,-2.036 -2.133,0 -3.832,0.568 -5.135,1.704 -1.303,1.112 -1.944,2.58 -1.944,4.378 0,2.601 2.441,5.772 7.293,9.56 l 0.824,0.686 c 8.426,6.746 13.895,12.307 16.398,16.68 2.486,4.354 3.738,9.514 3.738,15.429 0,9.867 -3.121,17.821 -9.37,23.805 -6.223,5.99 -14.504,8.973 -24.824,8.973 -3.971,0 -7.878,-0.617 -11.71,-1.869 -3.832,-1.258 -7.784,-3.196 -11.855,-5.827 z"
id="path16" /><polygon fill="none" stroke="#fff" stroke-width="3" points="289.081,22.229 289.081,47.927 272.324,47.927 272.324,123.463 243.926,123.463 243.926,47.927 227.175,47.927 227.175,22.229 " id="polygon18" transform="translate(0,-10)" /><polygon fill="none" stroke="#fff" stroke-width="3" points="363.736,22.229 342.323,72.229 365.725,123.463 335.816,123.463 327.133,96.771 318.329,123.463 288.345,123.463 311.822,72.229 290.334,22.229 319.581,22.229 327.133,49.063 334.488,22.229 " id="polygon20" transform="translate(0,-10)" /><path fill="none" stroke="#fff" stroke-width="5" d="M 272.324,113.463 H 243.926 V 37.927 H 227.175 V 12.229 h 61.906 V 37.928 H 272.324 Z M 311.822,62.229 290.334,12.228 h 29.247 l 7.552,26.834 7.355,-26.834 h 29.248 l -21.413,50.001 23.401,51.234 h -29.908 l -8.684,-26.693 -8.804,26.693 h -29.984 z" id="path22" /></svg>