<?xml version="1.0" encoding="UTF-8" standalone="no"?>
<svg
   id="Calque_2"
   data-name="Calque 2"
   viewBox="0 0 723.54004 234.19"
   version="1.1"
   sodipodi:docname="Logo fond noir nke jaune - sans fond.svg"
   inkscape:version="1.2.2 (732a01da63, 2022-12-09)"
   width="723.54004"
   height="234.19"
   xmlns:inkscape="http://www.inkscape.org/namespaces/inkscape"
   xmlns:sodipodi="http://sodipodi.sourceforge.net/DTD/sodipodi-0.dtd"
   xmlns="http://www.w3.org/2000/svg"
   xmlns:svg="http://www.w3.org/2000/svg">
  <sodipodi:namedview
     id="namedview62"
     pagecolor="#ffffff"
     bordercolor="#666666"
     borderopacity="1.0"
     inkscape:showpageshadow="2"
     inkscape:pageopacity="0.0"
     inkscape:pagecheckerboard="0"
     inkscape:deskcolor="#d1d1d1"
     showgrid="false"
     inkscape:zoom="1.6071871"
     inkscape:cx="307.68042"
     inkscape:cy="133.15189"
     inkscape:window-width="2560"
     inkscape:window-height="1377"
     inkscape:window-x="1432"
     inkscape:window-y="817"
     inkscape:window-maximized="1"
     inkscape:current-layer="Calque_2" />
  <defs
     id="defs4">
    <style
       id="style2">
      .cls-1, .cls-2, .cls-3 {
        stroke-width: 0px;
      }

      .cls-2 {
        fill: #fdd300;
      }

      .cls-3 {
        fill: #fff;
      }
    </style>
  </defs>
  <g
     id="Calque_1-2"
     data-name="Calque 1"
     transform="translate(-55.02,-78.87)">
    <g
       id="g58">
      <g
         id="g42">
        <path
           class="cls-3"
           d="m 80.84,274.13 h 8.96 c 0.85,0 1.27,0.42 1.27,1.27 v 36.37 c 0,0.85 -0.42,1.27 -1.27,1.27 h -4.96 c -0.85,0 -1.27,-0.42 -1.27,-1.27 v -28.69 h -0.24 l -6.17,20.28 c -0.25,0.81 -0.75,1.21 -1.52,1.21 h -5.08 c -0.77,0 -1.27,-0.4 -1.51,-1.21 l -6.29,-20.34 h -0.24 v 28.75 c 0,0.49 -0.08,0.82 -0.24,1 -0.16,0.18 -0.51,0.27 -1.03,0.27 h -4.96 c -0.85,0 -1.27,-0.42 -1.27,-1.27 V 275.4 c 0,-0.85 0.42,-1.27 1.27,-1.27 h 9.02 c 0.57,0 0.95,0.28 1.15,0.85 l 6.42,21.36 h 0.36 l 6.48,-21.36 c 0.12,-0.57 0.5,-0.85 1.15,-0.85 z"
           id="path8" />
        <path
           class="cls-3"
           d="m 114.61,313.04 h -5.81 c -0.72,0 -0.97,-0.42 -0.72,-1.27 l 9.56,-36.37 c 0.29,-0.85 0.89,-1.27 1.82,-1.27 h 8.05 c 1,0 1.61,0.42 1.81,1.27 l 9.56,36.37 c 0.24,0.85 0,1.27 -0.73,1.27 h -5.81 c -0.44,0 -0.75,-0.09 -0.91,-0.27 -0.16,-0.18 -0.29,-0.51 -0.36,-1 l -1.69,-6.65 h -11.8 l -1.69,6.65 c -0.08,0.49 -0.21,0.82 -0.39,1 -0.18,0.18 -0.47,0.27 -0.88,0.27 z m 8.78,-31.59 -4.36,17.49 h 8.96 l -4.36,-17.49 z"
           id="path10" />
        <path
           class="cls-3"
           d="m 162.29,313.04 h -5.14 c -0.85,0 -1.27,-0.42 -1.27,-1.27 V 275.4 c 0,-0.85 0.42,-1.27 1.27,-1.27 h 14.41 c 3.15,0 5.61,0.87 7.38,2.6 1.77,1.73 2.66,4.18 2.66,7.32 v 4.72 c 0,4.56 -1.79,7.58 -5.38,9.07 v 0.25 l 6.48,13.49 c 0.36,0.97 0.02,1.45 -1.03,1.45 h -4.9 c -0.73,0 -1.25,-0.08 -1.58,-0.24 -0.33,-0.16 -0.59,-0.5 -0.79,-1.03 l -6.05,-13.08 h -4.06 c -0.48,0 -0.72,0.23 -0.72,0.67 v 12.41 c 0,0.85 -0.42,1.27 -1.28,1.27 z m 1.94,-20.51 h 5.93 c 1.29,0 2.24,-0.28 2.85,-0.82 0.6,-0.55 0.91,-1.43 0.91,-2.64 v -4.72 c 0,-1.25 -0.31,-2.16 -0.91,-2.72 -0.61,-0.57 -1.56,-0.85 -2.85,-0.85 h -5.93 c -0.44,0 -0.66,0.22 -0.66,0.66 v 10.41 c 0,0.44 0.22,0.67 0.66,0.67 z"
           id="path12" />
        <path
           class="cls-3"
           d="m 208.59,275.4 v 36.37 c 0,0.85 -0.42,1.27 -1.27,1.27 h -5.15 c -0.85,0 -1.27,-0.42 -1.27,-1.27 V 275.4 c 0,-0.85 0.42,-1.27 1.27,-1.27 h 5.15 c 0.85,0 1.27,0.42 1.27,1.27 z"
           id="path14" />
        <path
           class="cls-3"
           d="m 234.67,313.04 h -5.02 c -0.85,0 -1.28,-0.42 -1.28,-1.27 V 275.4 c 0,-0.85 0.42,-1.27 1.28,-1.27 h 4.54 c 0.85,0 1.41,0.28 1.69,0.85 l 12.22,22.94 h 0.24 v -22.51 c 0,-0.85 0.42,-1.27 1.27,-1.27 h 5.02 c 0.85,0 1.27,0.42 1.27,1.27 v 36.37 c 0,0.85 -0.42,1.27 -1.27,1.27 h -4.42 c -0.89,0 -1.53,-0.4 -1.94,-1.21 l -12.11,-22.51 h -0.24 v 22.45 c 0,0.85 -0.42,1.27 -1.27,1.27 z"
           id="path16" />
        <path
           class="cls-3"
           d="m 296.46,313.04 h -19.79 c -0.85,0 -1.28,-0.42 -1.28,-1.27 V 275.4 c 0,-0.85 0.42,-1.27 1.28,-1.27 h 19.79 c 0.8,0 1.21,0.42 1.21,1.27 v 4.12 c 0,0.85 -0.4,1.27 -1.21,1.27 h -12.65 c -0.49,0 -0.72,0.22 -0.72,0.66 v 7.87 c 0,0.44 0.24,0.67 0.72,0.67 h 10.35 c 0.85,0 1.27,0.42 1.27,1.27 v 4.11 c 0,0.85 -0.42,1.27 -1.27,1.27 h -10.35 c -0.49,0 -0.72,0.22 -0.72,0.67 v 8.41 c 0,0.44 0.24,0.67 0.72,0.67 h 12.65 c 0.8,0 1.21,0.42 1.21,1.27 v 4.11 c 0,0.85 -0.4,1.27 -1.21,1.27 z"
           id="path18" />
        <path
           class="cls-3"
           d="m 362,313.04 h -19.79 c -0.85,0 -1.27,-0.42 -1.27,-1.27 V 275.4 c 0,-0.85 0.42,-1.27 1.27,-1.27 H 362 c 0.81,0 1.21,0.42 1.21,1.27 v 4.12 c 0,0.85 -0.4,1.27 -1.21,1.27 h -12.65 c -0.48,0 -0.72,0.22 -0.72,0.66 v 7.87 c 0,0.44 0.24,0.67 0.72,0.67 h 10.35 c 0.85,0 1.27,0.42 1.27,1.27 v 4.11 c 0,0.85 -0.42,1.27 -1.27,1.27 h -10.35 c -0.48,0 -0.72,0.22 -0.72,0.67 v 8.41 c 0,0.44 0.24,0.67 0.72,0.67 H 362 c 0.81,0 1.21,0.42 1.21,1.27 v 4.11 c 0,0.85 -0.4,1.27 -1.21,1.27 z"
           id="path20" />
        <path
           class="cls-3"
           d="m 402.73,313.04 h -19.91 c -0.85,0 -1.27,-0.42 -1.27,-1.27 V 275.4 c 0,-0.85 0.42,-1.27 1.27,-1.27 h 5.14 c 0.85,0 1.27,0.42 1.27,1.27 v 30.26 c 0,0.44 0.25,0.67 0.73,0.67 h 12.77 c 0.81,0 1.21,0.45 1.21,1.33 v 4.11 c 0,0.85 -0.4,1.27 -1.21,1.27 z"
           id="path22" />
        <path
           class="cls-3"
           d="m 441.4,313.04 h -19.79 c -0.85,0 -1.27,-0.42 -1.27,-1.27 V 275.4 c 0,-0.85 0.42,-1.27 1.27,-1.27 h 19.79 c 0.81,0 1.21,0.42 1.21,1.27 v 4.12 c 0,0.85 -0.4,1.27 -1.21,1.27 h -12.65 c -0.48,0 -0.72,0.22 -0.72,0.66 v 7.87 c 0,0.44 0.24,0.67 0.72,0.67 h 10.35 c 0.85,0 1.27,0.42 1.27,1.27 v 4.11 c 0,0.85 -0.42,1.27 -1.27,1.27 h -10.35 c -0.48,0 -0.72,0.22 -0.72,0.67 v 8.41 c 0,0.44 0.24,0.67 0.72,0.67 h 12.65 c 0.81,0 1.21,0.42 1.21,1.27 v 4.11 c 0,0.85 -0.4,1.27 -1.21,1.27 z"
           id="path24" />
        <path
           class="cls-3"
           d="m 476.92,313.04 h -6.6 c -3.19,0 -5.65,-0.85 -7.39,-2.54 -1.73,-1.69 -2.6,-4.13 -2.6,-7.32 V 284 c 0,-3.19 0.87,-5.63 2.6,-7.32 1.74,-1.69 4.2,-2.54 7.39,-2.54 h 6.6 c 3.14,0 5.59,0.86 7.35,2.57 1.75,1.71 2.64,4.15 2.64,7.29 v 2.84 c 0,0.89 -0.45,1.33 -1.33,1.33 h -5.08 c -0.85,0 -1.27,-0.44 -1.27,-1.33 v -2.48 c 0,-1.29 -0.27,-2.21 -0.82,-2.75 -0.54,-0.55 -1.46,-0.82 -2.75,-0.82 h -4.11 c -1.25,0 -2.15,0.27 -2.69,0.82 -0.55,0.54 -0.82,1.46 -0.82,2.75 v 18.46 c 0,1.29 0.27,2.21 0.82,2.76 0.55,0.54 1.44,0.82 2.69,0.82 h 4.11 c 1.3,0 2.21,-0.28 2.75,-0.82 0.55,-0.55 0.82,-1.47 0.82,-2.76 v -2.48 c 0,-0.89 0.42,-1.33 1.27,-1.33 h 5.08 c 0.89,0 1.33,0.44 1.33,1.33 v 2.85 c 0,3.15 -0.88,5.58 -2.64,7.29 -1.75,1.71 -4.21,2.57 -7.35,2.57 z"
           id="path26" />
        <path
           class="cls-3"
           d="m 517.16,313.04 h -5.08 c -0.89,0 -1.33,-0.42 -1.33,-1.27 v -30.32 c 0,-0.44 -0.22,-0.66 -0.66,-0.66 h -6.9 c -0.85,0 -1.27,-0.42 -1.27,-1.27 v -4.12 c 0,-0.85 0.42,-1.27 1.27,-1.27 h 22.88 c 0.85,0 1.27,0.42 1.27,1.27 v 4.12 c 0,0.85 -0.42,1.27 -1.27,1.27 h -6.9 c -0.48,0 -0.73,0.22 -0.73,0.66 v 30.32 c 0,0.85 -0.42,1.27 -1.27,1.27 z"
           id="path28" />
        <path
           class="cls-3"
           d="m 549.96,313.04 h -5.14 c -0.85,0 -1.27,-0.42 -1.27,-1.27 V 275.4 c 0,-0.85 0.42,-1.27 1.27,-1.27 h 14.41 c 3.15,0 5.61,0.87 7.38,2.6 1.77,1.73 2.66,4.18 2.66,7.32 v 4.72 c 0,4.56 -1.79,7.58 -5.38,9.07 v 0.25 l 6.48,13.49 c 0.36,0.97 0.02,1.45 -1.03,1.45 h -4.9 c -0.73,0 -1.25,-0.08 -1.58,-0.24 -0.33,-0.16 -0.59,-0.5 -0.79,-1.03 l -6.05,-13.08 h -4.06 c -0.48,0 -0.72,0.23 -0.72,0.67 v 12.41 c 0,0.85 -0.42,1.27 -1.28,1.27 z m 1.94,-20.51 h 5.93 c 1.29,0 2.24,-0.28 2.85,-0.82 0.6,-0.55 0.91,-1.43 0.91,-2.64 v -4.72 c 0,-1.25 -0.31,-2.16 -0.91,-2.72 -0.61,-0.57 -1.56,-0.85 -2.85,-0.85 h -5.93 c -0.44,0 -0.67,0.22 -0.67,0.66 v 10.41 c 0,0.44 0.22,0.67 0.67,0.67 z"
           id="path30" />
        <path
           class="cls-3"
           d="m 604.43,313.04 h -6.78 c -3.19,0 -5.65,-0.85 -7.39,-2.54 -1.73,-1.69 -2.6,-4.13 -2.6,-7.32 V 284 c 0,-3.19 0.87,-5.63 2.6,-7.32 1.73,-1.69 4.2,-2.54 7.39,-2.54 h 6.78 c 3.18,0 5.64,0.85 7.38,2.54 1.73,1.69 2.6,4.14 2.6,7.32 v 19.18 c 0,3.19 -0.87,5.63 -2.6,7.32 -1.74,1.69 -4.2,2.54 -7.38,2.54 z m -5.57,-6.65 h 4.3 c 1.29,0 2.21,-0.28 2.75,-0.82 0.55,-0.55 0.82,-1.47 0.82,-2.76 v -18.46 c 0,-1.29 -0.27,-2.21 -0.82,-2.75 -0.54,-0.55 -1.46,-0.82 -2.75,-0.82 h -4.3 c -1.29,0 -2.2,0.27 -2.72,0.82 -0.52,0.54 -0.79,1.46 -0.79,2.75 v 18.46 c 0,1.29 0.27,2.21 0.79,2.76 0.52,0.54 1.43,0.82 2.72,0.82 z"
           id="path32" />
        <path
           class="cls-3"
           d="m 639.59,313.04 h -5.02 c -0.85,0 -1.28,-0.42 -1.28,-1.27 V 275.4 c 0,-0.85 0.42,-1.27 1.28,-1.27 h 4.54 c 0.85,0 1.41,0.28 1.69,0.85 l 12.22,22.94 h 0.24 v -22.51 c 0,-0.85 0.42,-1.27 1.27,-1.27 h 5.02 c 0.85,0 1.27,0.42 1.27,1.27 v 36.37 c 0,0.85 -0.42,1.27 -1.27,1.27 h -4.42 c -0.89,0 -1.53,-0.4 -1.94,-1.21 l -12.11,-22.51 h -0.24 v 22.45 c 0,0.85 -0.42,1.27 -1.27,1.27 z"
           id="path34" />
        <path
           class="cls-3"
           d="m 688.3,275.4 v 36.37 c 0,0.85 -0.42,1.27 -1.27,1.27 h -5.14 c -0.85,0 -1.27,-0.42 -1.27,-1.27 V 275.4 c 0,-0.85 0.42,-1.27 1.27,-1.27 h 5.14 c 0.85,0 1.27,0.42 1.27,1.27 z"
           id="path36" />
        <path
           class="cls-3"
           d="m 724.07,313.04 h -6.59 c -3.19,0 -5.65,-0.85 -7.39,-2.54 -1.73,-1.69 -2.6,-4.13 -2.6,-7.32 V 284 c 0,-3.19 0.87,-5.63 2.6,-7.32 1.73,-1.69 4.2,-2.54 7.39,-2.54 h 6.59 c 3.15,0 5.6,0.86 7.35,2.57 1.75,1.71 2.63,4.15 2.63,7.29 v 2.84 c 0,0.89 -0.44,1.33 -1.33,1.33 h -5.08 c -0.85,0 -1.27,-0.44 -1.27,-1.33 v -2.48 c 0,-1.29 -0.28,-2.21 -0.82,-2.75 -0.55,-0.55 -1.46,-0.82 -2.76,-0.82 h -4.11 c -1.25,0 -2.15,0.27 -2.69,0.82 -0.54,0.55 -0.82,1.46 -0.82,2.75 v 18.46 c 0,1.29 0.28,2.21 0.82,2.76 0.55,0.54 1.44,0.82 2.69,0.82 h 4.11 c 1.3,0 2.21,-0.28 2.76,-0.82 0.54,-0.55 0.82,-1.47 0.82,-2.76 v -2.48 c 0,-0.89 0.42,-1.33 1.27,-1.33 h 5.08 c 0.89,0 1.33,0.44 1.33,1.33 v 2.85 c 0,3.15 -0.88,5.58 -2.63,7.29 -1.75,1.71 -4.21,2.57 -7.35,2.57 z"
           id="path38" />
        <path
           class="cls-3"
           d="m 751.3,303.12 v -1.21 c 0,-0.85 0.42,-1.27 1.27,-1.27 h 5.15 c 0.85,0 1.27,0.42 1.27,1.27 v 0.48 c 0,1.54 0.3,2.58 0.91,3.15 0.6,0.56 1.71,0.85 3.33,0.85 h 2.84 c 1.57,0 2.67,-0.31 3.29,-0.91 0.63,-0.61 0.94,-1.73 0.94,-3.39 v -0.72 c 0,-1.17 -0.48,-2.07 -1.42,-2.7 -0.95,-0.62 -2.13,-0.99 -3.54,-1.11 -1.42,-0.13 -2.94,-0.35 -4.57,-0.7 -1.64,-0.34 -3.16,-0.79 -4.57,-1.33 -1.41,-0.55 -2.59,-1.62 -3.54,-3.21 -0.95,-1.59 -1.42,-3.64 -1.42,-6.14 v -2.12 c 0,-3.15 0.89,-5.59 2.66,-7.32 1.78,-1.73 4.24,-2.6 7.38,-2.6 h 6.05 c 3.19,0 5.67,0.87 7.44,2.6 1.77,1.73 2.66,4.18 2.66,7.32 v 1.15 c 0,0.85 -0.42,1.27 -1.27,1.27 h -5.15 c -0.85,0 -1.27,-0.42 -1.27,-1.27 v -0.36 c 0,-1.57 -0.3,-2.64 -0.91,-3.21 -0.6,-0.57 -1.71,-0.85 -3.33,-0.85 h -2.36 c -1.65,0 -2.77,0.31 -3.36,0.94 -0.59,0.63 -0.88,1.84 -0.88,3.66 v 1.15 c 0,1.9 1.65,2.98 4.96,3.27 3.43,0.29 6.48,0.97 9.14,2.06 1.41,0.61 2.59,1.68 3.54,3.24 0.95,1.55 1.42,3.54 1.42,5.96 v 2.06 c 0,3.14 -0.89,5.58 -2.66,7.32 -1.78,1.74 -4.24,2.61 -7.38,2.61 h -6.6 c -3.14,0 -5.6,-0.87 -7.38,-2.61 -1.78,-1.73 -2.67,-4.18 -2.67,-7.32 z"
           id="path40" />
      </g>
      <g
         id="g56">
        <g
           id="g50">
          <path
             class="cls-2"
             d="M 221.64,249.11 V 156.2 c 0,-2.77 -0.15,-6.2 -0.46,-10.27 -0.31,-4.08 -0.77,-9.23 -1.38,-15.46 h 44.44 l 0.46,16.97 c 3.54,-6.07 8.7,-10.91 15.46,-14.48 6.77,-3.58 14.23,-5.37 22.39,-5.37 14.46,0 25.45,3.79 32.95,11.37 7.51,7.58 11.25,18.69 11.25,33.3 v 76.87 H 303 v -60.48 c 0,-13.16 -1.34,-21.97 -4.04,-26.43 -2.69,-4.46 -7.35,-6.69 -13.96,-6.69 -6.23,0 -11.06,2.17 -14.48,6.52 -3.43,4.34 -5.14,10.52 -5.14,18.52 v 68.56 h -43.74 z"
             id="path44" />
          <path
             class="cls-2"
             d="M 368.49,249.11 V 78.87 h 43.28 v 103.88 l 38.32,-52.29 h 46.75 l -38.09,53.44 42.35,65.21 h -50.32 l -39.01,-64.29 v 64.29 z"
             id="path46" />
          <path
             class="cls-2"
             d="m 621.53,210.8 c -1.93,13.31 -8.14,23.5 -18.65,30.58 -10.5,7.08 -24.64,10.62 -42.41,10.62 -19.93,0 -35.07,-5.17 -45.42,-15.52 -10.35,-10.35 -15.52,-25.52 -15.52,-45.54 0,-20.02 5.34,-35.95 16.05,-46.91 10.69,-10.97 25.96,-16.45 45.82,-16.45 19.86,0 34.91,5.47 45.18,16.39 10.27,10.93 15.41,26.89 15.41,47.9 0,2.16 -0.02,3.77 -0.06,4.85 -0.04,1.08 -0.14,2.08 -0.3,3 h -81.94 c 0,9.39 1.91,16.46 5.72,21.24 3.8,4.77 9.48,7.16 17.02,7.16 5.31,0 9.6,-1.44 12.87,-4.33 3.27,-2.89 5.45,-7.21 6.53,-12.98 h 39.7 z m -81.37,-35.44 h 42.01 c -0.69,-7.92 -2.75,-13.93 -6.18,-18 -3.43,-4.08 -8.02,-6.12 -13.79,-6.12 -6.54,0 -11.58,1.95 -15.12,5.83 -3.54,3.89 -5.85,9.99 -6.92,18.29 z"
             id="path48" />
        </g>
        <rect
           class="cls-2"
           x="623.77002"
           y="235.35001"
           width="154.78999"
           height="13.76"
           id="rect52" />
        <rect
           class="cls-2"
           x="55.380001"
           y="235.35001"
           width="154.78999"
           height="13.76"
           id="rect54" />
      </g>
    </g>
  </g>
</svg>
