<?xml version="1.0" encoding="UTF-8"?>
<!DOCTYPE svg  PUBLIC '-//W3C//DTD SVG 1.1//EN'  'http://www.w3.org/Graphics/SVG/1.1/DTD/svg11.dtd'>
<svg enable-background="new 0 0 1000 1000" version="1.1" viewBox="0 0 1e3 1e3" xml:space="preserve" xmlns="http://www.w3.org/2000/svg">
<g transform="translate(0 511) scale(.1 -.1)"><path d="m9362.4 4991.2c-96.7-40.1-9164-9116.8-9218.2-9230-58.9-120.3-58.9-221.6 0-337.2 77.8-155.6 259.3-235.8 431.4-191 87.2 23.6 308.8 235.8 1992.2 1916.7l1890.8 1890.9v-1676.3c0-1817.7-2.4-1782.3 129.7-1956.8 84.9-110.8 275.8-198 433.8-198 165 0 351.3 82.5 433.8 193.3 139.1 181.5 134.4 106.1 134.4 1923.8v1671.6l155.6 91.9c306.5 179.2 547 504.5 636.6 855.8 51.9 209.8 35.4 572.9-35.4 778l-51.9 153.2 280.5 278.2 278.2 280.6 75.4-136.7c193.3-363.1 290-862.9 242.8-1247.2-63.6-516.3-247.5-921.8-584.7-1284.9-172.1-183.9-195.7-226.3-195.7-356 0-216.9 150.9-372.5 358.4-372.5 150.9 0 212.2 35.4 386.6 214.5 740.3 775.7 994.9 1926.2 650.7 2944.7-73.1 214.5-172.1 424.4-304.1 646l-84.9 136.7 304.1 304.1c167.4 167.4 308.9 304.1 315.9 304.1 25.9 0 301.8-436.2 400.8-634.2 113.2-228.7 264.1-667.2 315.9-921.8 242.8-1190.6-89.6-2402.4-910.1-3319.5-287.6-323-301.8-346.6-301.8-485.7 0-278.2 278.2-450.3 532.8-330.1 94.3 44.8 339.5 299.4 554 575.3 476.2 610.6 782.7 1327.3 907.7 2121.8 54.2 334.8 54.2 1011.4 0 1343.8-120.2 768.6-443.2 1541.9-865.2 2077l-96.7 120.2 648.3 653.1c539.9 542.2 653.1 667.2 676.6 749.7 42.4 139.1 14.1 254.6-92 367.8-82.5 87.2-101.4 96.7-228.7 103.7-75 2.6-164.6-4.5-197.6-18.6z" fill="#f0f0f0"/><path d="m4392.6 4816.7c-1796.5-231-3307.7-1534.8-3812.2-3288.9-129.7-450.3-165-723.8-162.7-1273.1 0-594.1 56.6-943 235.8-1480.6 75.4-224 325.4-742.6 457.4-945.4l99-150.9 271.1 271.2 271.1 271.1-103.8 186.2c-202.7 358.4-351.3 768.6-436.2 1200-56.6 290-56.6 1018.5 0 1320.2 146.2 782.7 483.3 1438.1 1027.9 2001.6 778 801.6 1791.8 1207.1 2899.9 1162.3 587-25.9 1077.4-158 1603.2-431.5l294.7-153.2 271.2 271.3 268.8 268.8-150.9 99c-212.2 136.7-679 360.7-928.9 447.9-674.3 233.5-1412.3 311.3-2105.4 224z" fill="#f0f0f0"/><path d="m4567.1 3201.8c-431.4-68.4-938.3-273.5-1282.5-516.3-995-707.3-1459.4-1952.1-1162.4-3119.2 37.7-150.9 115.5-372.5 172.1-490.4l101.4-214.6 280.6 282.9 280.5 282.9-37.7 101.4c-115.5 313.6-162.7 740.3-113.2 1056.2 40.1 254.6 167.4 608.3 299.4 829.9 219.2 365.4 634.2 721.4 1025.6 881.7 502.2 207.5 1103.4 226.3 1570.2 51.9l132-47.2 568.2 568.2-174.5 80.2c-219.2 99-429.1 169.8-660.1 219.3-207.5 44.9-796.9 63.7-999.6 33.1z" fill="#f0f0f0"/><path d="m4717.9 1608c-601.2-157.9-1058.6-730.9-1032.6-1296.7l7.1-150.9 742.6 742.7 742.6 742.6-165-2.4c-91.9 0.1-223.9-16.4-294.7-35.3z" fill="#f0f0f0"/></g>
</svg>
