<svg xmlns="http://www.w3.org/2000/svg" width="89.6" height="95.5" xmlns:v="https://vecta.io/nano"><g fill="none" stroke="#f0f0f0"><path d="M87.13 84.463l.3-70.21c.01-2.236-2.52-4.056-5.647-4.063l-73.634-.16C5.024 10.02 2.48 11.83 2.47 14.065l-.3 70.212c-.01 2.236 2.52 4.056 5.647 4.063l73.635.16c3.13.007 5.672-1.8 5.682-4.038z" stroke-width="3"/><path d="M21.88 22.573l48.2-.155M22.35 47.513l48.2-.155" stroke-width="3.035"/><path d="M21.898 74.358l25.8-.158" stroke-width="2.24"/><path d="M8.87 23.212l2.98 4.08 6.276-11.298M8.83 47.25l2.98 4.08 6.276-11.298M9.204 73.34l2.98 4.08 6.277-11.298" stroke-width="2.5"/></g><path d="M81.442 64.992a9.643 9.643 0 0 1-.454 2.929c-1.565 6.597-12.954 13.916-14.252 14.732a1.979 1.979 0 0 1-2.105 0c-1.3-.817-12.7-8.138-14.26-14.734a9.657 9.657 0 0 1-.456-2.928 9.769 9.769 0 0 1 15.766-7.714 9.767 9.767 0 0 1 15.763 7.714z" stroke="#f0f0f0" fill="#f0f0f0" stroke-width="1.352"/></svg>