<svg xmlns="http://www.w3.org/2000/svg" width="89.6" height="95.5" stroke="#f0f0f0" xmlns:v="http://vecta.io/nano"><path d="M44.8 6.215A41.535 41.535 0 1 0 86.335 47.75 41.586 41.586 0 0 0 44.8 6.215z" fill="none" stroke-width="2.504"/><path d="M44.474 26.362C21.695 26.362 8.026 49 8.026 49s13.668 22.92 36.448 22.92 36.448-22.78 36.448-22.78-13.668-22.78-36.448-22.78zm0 41.003c-19.932 0-30.753-18.223-30.753-18.223s10.82-18.223 30.753-18.223S75.227 49.14 75.227 49.14s-10.82 18.224-30.753 18.224zM58.142 49.14a13.668 13.668 0 1 1-13.667-13.668 13.668 13.668 0 0 1 13.667 13.668z" fill="#f0f0f0" stroke-width=".951"/></svg>